<svg width="100" height="100" viewBox="0 0 100 100" fill="none" xmlns="http://www.w3.org/2000/svg">
<path d="M14.6984 89.1586L6.84375 1.05624H93.1562L85.2937 89.1453L49.9477 98.9445L14.6984 89.1586Z" fill="#1572B6"/>
<path d="M50.0008 91.4547L78.3348 83.9353L85.0008 12.4547H50.0008V91.4547Z" fill="#33A9DC"/>
<path d="M50 44.5L64.2489 42.9811L65.233 32.4837L50 33.2777V22.5779L77.0008 22.2324L76.7423 24.9829L74.0954 53.2324L50 55.2777V44.5Z" fill="white"/>
<path d="M50.0648 68.2414L50.0172 68.2555L37.9836 65.0062L37.2141 56.3883H26.3687L27.882 73.3547L50.0156 79.4977L50.0648 79.4836V68.2414Z" fill="#EBEBEB"/>
<path d="M63.4082 52.4547L62.117 66.4426L50.162 68.5V79.5L72.1361 74.5203L72.2973 72.7554L74.1612 52.4547H63.4082Z" fill="white"/>
<path d="M50.0375 22.5679V33.3734H23.9375L23.7211 30.9453L23.2289 25.4672L22.9703 22.5679H50.0375ZM50.0008 44.4398V55.2453H38.1187L37.9023 52.8172L37.4094 47.339L37.1516 44.4398H50.0008Z" fill="#EBEBEB"/>
</svg>
