<svg width="100" height="100" viewBox="0 0 100 100" fill="none" xmlns="http://www.w3.org/2000/svg">
<g clip-path="url(#clip0_1_399)">
<path d="M27.5 27.2656L21.0156 20.7812V67.4219L21.0938 69.6094C21.0938 70.625 21.25 71.7969 21.6406 72.9688L72.8906 91.0156L85.625 85.3906L27.5 27.2656Z" fill="#00C4B3"/>
<path d="M85.625 85.3906L72.8906 91.0156L21.7969 72.9688C22.8125 76.7188 24.9219 80.8594 27.2656 83.2812L43.9063 99.8438L81.0938 99.9219L85.625 85.3906Z" fill="#22D3C5"/>
<path d="M1.32807 50.8594C-0.312559 52.5781 0.546816 56.25 3.12494 58.9844L14.6093 70.5469L21.7968 73.125C21.5624 71.9531 21.2499 70.7813 21.2499 69.7656L21.1718 67.5781L21.0156 20.8594M85.6249 85.3906L91.2499 72.5781L73.2812 21.3281C72.1093 21.0937 70.9374 20.8594 69.9218 20.7813L67.6562 20.7031L21.0937 20.7813" fill="#0075C9"/>
<path d="M85.625 85.3906L99.4531 80.8594V42.8125L83.5156 26.7969C81.1719 24.4531 77.0312 22.2656 73.2031 21.3281L91.25 72.5781" fill="#00A8E1"/>
<path d="M70.7031 14.2188L59.1406 2.73438C56.4844 0.0781306 52.8906 -0.703119 51.0156 0.937506L21.0156 20.7813H67.5L69.7656 20.8594C70.7813 20.8594 71.9531 21.0156 73.125 21.4063L70.7031 14.2188Z" fill="#00C4B3"/>
</g>
<defs>
<clipPath id="clip0_1_399">
<rect width="100" height="100" fill="white"/>
</clipPath>
</defs>
</svg>
