<svg width="100" height="100" viewBox="0 0 100 100" fill="none" xmlns="http://www.w3.org/2000/svg">
<g clip-path="url(#clip0_1_433)">
<path d="M50.1113 80.437H30.6556V61.3463H50.1113V80.437ZM30.6556 95.4157H15.9166V80.4371L30.6556 80.437V95.4157ZM15.9166 80.4371H3.53914V68.0996H15.9166V80.4371ZM49.8177 99.8224V80.4371C70.451 80.4371 86.3677 60.1718 78.4093 38.7273C75.4605 30.7972 69.2734 24.3375 61.0183 21.3982C39.7946 13.7641 19.4558 29.6227 19.4558 49.8888H0C0 17.5811 31.5396 -7.97336 66.031 2.60016C81.0644 7.30117 92.8546 19.0491 97.5705 34.0293C108.181 68.3931 82.5349 99.8224 49.8177 99.8224Z" fill="#0080FF"/>
</g>
<defs>
<clipPath id="clip0_1_433">
<rect width="100" height="100" fill="white"/>
</clipPath>
</defs>
</svg>
