<svg fill="none" height="40" viewBox="0 0 40 40" width="40" xmlns="http://www.w3.org/2000/svg"><path d="m39 19.9977c0 10.4921-8.5065 18.9978-19 18.9978-10.49352 0-19-8.5057-19-18.9978 0-10.49202 8.50648-18.9977 19-18.9977 10.4935 0 19 8.50568 19 18.9977z" stroke="#000" stroke-width="2"/><path d="m28.6819 13.5257s-2.4749-1.9365-5.3979-2.1588l-.2634.5266c2.6427.6467 3.8551 1.5733 5.1213 2.7116-2.1835-1.1145-4.3393-2.1589-8.0966-2.1589s-5.9133 1.0444-8.0965 2.1589c1.2663-1.1383 2.7085-2.1671 5.1212-2.7116l-.2634-.5266c-3.0662.2898-5.3975 2.1588-5.3975 2.1588s-2.76414 4.0074-3.23869 11.8738c2.78639 3.2127 7.01709 3.2381 7.01709 3.2381l.8847-1.1793c-1.5016-.5219-3.1976-1.454-4.6631-3.1383 1.7479 1.3222 4.3857 2.6986 8.6364 2.6986s6.8885-1.3763 8.6364-2.6986c-1.4655 1.6843-3.1615 2.6166-4.6631 3.1383l.8847 1.1793s4.2307-.0254 7.0171-3.2383c-.4746-7.8662-3.2387-11.8736-3.2387-11.8736zm-12.1449 9.7149c-1.0435 0-1.8893-.9666-1.8893-2.1588 0-1.1923.8458-2.1589 1.8893-2.1589 1.0434 0 1.8892.9666 1.8892 2.1589 0 1.1922-.8458 2.1588-1.8892 2.1588zm7.017 0c-1.0434 0-1.8892-.9666-1.8892-2.1588 0-1.1923.8458-2.1589 1.8892-2.1589 1.0435 0 1.8893.9666 1.8893 2.1589 0 1.1922-.846 2.1588-1.8893 2.1588z" fill="#000"/></svg>