<svg width="100" height="100" viewBox="0 0 100 100" fill="none" xmlns="http://www.w3.org/2000/svg">
<g clip-path="url(#clip0_1_411)">
<path d="M13.6516 80.6844L25.9602 1.92343C26.0339 1.45274 26.2537 1.01709 26.5884 0.67804C26.9231 0.338986 27.3559 0.113655 27.8256 0.0338736C28.2953 -0.0459076 28.7782 0.0238934 29.2061 0.233418C29.634 0.442942 29.9852 0.7816 30.2102 1.20156L42.9399 24.9437L48.0133 15.2828C48.2062 14.9164 48.4956 14.6096 48.8501 14.3955C49.2047 14.1815 49.6109 14.0684 50.025 14.0684C50.4392 14.0684 50.8454 14.1815 51.2 14.3955C51.5545 14.6096 51.8439 14.9164 52.0368 15.2828L86.3883 80.6844H13.6516Z" fill="#FFA000"/>
<path d="M56.1743 50.0039L42.9336 24.932L13.6516 80.6844L56.1743 50.0039Z" fill="#F57C00"/>
<path d="M86.3883 80.6844L76.961 22.3469C76.8911 21.9358 76.7095 21.5517 76.4362 21.2368C76.1628 20.9218 75.8082 20.688 75.411 20.5609C75.0138 20.4341 74.5894 20.419 74.1842 20.5174C73.7791 20.6158 73.4088 20.8238 73.1141 21.1188L13.6516 80.6836L46.554 99.1352C47.57 99.7025 48.7144 100 49.8782 100C51.0419 100 52.1863 99.7025 53.2024 99.1352L86.3883 80.6844Z" fill="#FFCA28"/>
<path d="M76.9609 22.3469C76.891 21.9357 76.7094 21.5517 76.4361 21.2368C76.1627 20.9218 75.8081 20.688 75.4109 20.5609C75.0138 20.4339 74.5894 20.4187 74.1843 20.517C73.7791 20.6152 73.4088 20.8232 73.114 21.118L61.3117 32.9516L52.0312 15.2828C51.8383 14.9163 51.549 14.6095 51.1944 14.3955C50.8399 14.1815 50.4336 14.0684 50.0195 14.0684C49.6054 14.0684 49.1991 14.1815 48.8446 14.3955C48.49 14.6095 48.2007 14.9163 48.0078 15.2828L42.9343 24.943L30.2047 1.20155C29.9794 0.781013 29.6275 0.442003 29.1989 0.232526C28.7703 0.0230496 28.2866 -0.0462774 27.8164 0.0343624C27.3463 0.114645 26.9135 0.340839 26.5792 0.68088C26.2449 1.02092 26.0261 1.45756 25.9539 1.92889L13.6515 80.6844H13.6117L13.6508 80.7297L13.975 80.8891L73.0968 21.6984C73.3917 21.4023 73.7624 21.1931 74.1684 21.094C74.5743 20.9948 74.9998 21.0094 75.398 21.1362C75.7961 21.2631 76.1516 21.4972 76.4254 21.8129C76.6992 22.1286 76.8807 22.5137 76.95 22.9258L86.2976 80.7406L86.3883 80.6836L76.9609 22.3469ZM13.7593 80.5766L25.9593 2.48592C26.0318 2.01448 26.2508 1.57777 26.5852 1.23762C26.9196 0.897478 27.3525 0.671127 27.8226 0.590612C28.2929 0.510162 28.7766 0.57966 29.2052 0.789269C29.6338 0.998878 29.9857 1.33798 30.2109 1.75858L42.939 25.5008L48.0133 15.8398C48.2062 15.4734 48.4955 15.1666 48.85 14.9526C49.2046 14.7385 49.6108 14.6254 50.025 14.6254C50.4391 14.6254 50.8454 14.7385 51.1999 14.9526C51.5544 15.1666 51.8438 15.4734 52.0367 15.8398L61.1289 33.1328L13.7578 80.5766H13.7593Z" fill="white" fill-opacity="0.2"/>
<path opacity="0.2" d="M53.2024 98.5781C52.1863 99.1455 51.0419 99.4433 49.8782 99.4433C48.7144 99.4433 47.57 99.1455 46.5539 98.5781L13.7297 80.1797L13.65 80.6851L46.5524 99.1305C47.5685 99.6978 48.7128 99.9956 49.8766 99.9956C51.0403 99.9956 52.1847 99.6978 53.2008 99.1305L86.3883 80.6851L86.3024 80.1617L53.2008 98.5797L53.2024 98.5781Z" fill="#A52714"/>
</g>
<defs>
<clipPath id="clip0_1_411">
<rect width="100" height="100" fill="white"/>
</clipPath>
</defs>
</svg>
