<svg width="40" height="40" viewBox="0 0 40 40" fill="none" xmlns="http://www.w3.org/2000/svg">
<path fill-rule="evenodd" clip-rule="evenodd" d="M20 0C8.95577 0 0 9.18054 0 20.5062C0 29.5664 5.73067 37.253 13.6773 39.9646C14.6767 40.1543 15.0438 39.5196 15.0438 38.9781C15.0438 38.4893 15.0254 36.8736 15.0167 35.1601C9.45267 36.4007 8.2786 32.7407 8.2786 32.7407C7.36873 30.3706 6.05803 29.7402 6.05803 29.7402C4.24325 28.4674 6.19482 28.4936 6.19482 28.4936C8.20295 28.6382 9.26061 30.6072 9.26061 30.6072C11.0444 33.7419 13.9393 32.8355 15.0807 32.3116C15.2603 30.9864 15.7784 30.0814 16.3505 29.5694C11.9082 29.051 7.2382 27.2925 7.2382 19.4351C7.2382 17.1965 8.01957 15.3671 9.29907 13.931C9.09144 13.4143 8.40678 11.3288 9.49286 8.50401C9.49286 8.50401 11.1724 7.9532 14.994 10.6063C16.5895 10.1519 18.3005 9.924 20.0001 9.91609C21.6997 9.924 23.4119 10.1519 25.0102 10.6063C28.8277 7.9532 30.5049 8.50401 30.5049 8.50401C31.5935 11.3288 30.9088 13.4143 30.7011 13.931C31.9835 15.3671 32.7594 17.1964 32.7594 19.4351C32.7594 27.3114 28.0807 29.0454 23.627 29.5531C24.3443 30.1896 24.9834 31.4375 24.9834 33.3506C24.9834 36.0943 24.9605 38.3026 24.9605 38.9781C24.9605 39.5239 25.3204 40.1634 26.334 39.9621C34.2766 37.2474 40 29.5635 40 20.5062C40 9.18054 31.0455 0 20 0Z" fill="black"/>
<path d="M7.57521 29.4423C7.5312 29.5445 7.37469 29.575 7.23235 29.505C7.08716 29.4381 7.00598 29.2992 7.05283 29.197C7.09587 29.0921 7.25234 29.0629 7.39729 29.133C7.54256 29.2 7.6254 29.3402 7.57521 29.4423Z" fill="black"/>
<path d="M8.38536 30.3689C8.29003 30.4593 8.10329 30.4173 7.97678 30.2741C7.8458 30.1311 7.8216 29.9397 7.91839 29.8479C8.01673 29.7574 8.19757 29.7997 8.32847 29.9428C8.45953 30.0874 8.485 30.2771 8.38536 30.3689Z" fill="black"/>
<path d="M9.17389 31.5498C9.05128 31.6373 8.85076 31.5553 8.72685 31.373C8.60423 31.1906 8.60426 30.9718 8.72972 30.8841C8.85364 30.7966 9.05131 30.8755 9.17677 31.0563C9.29906 31.2418 9.29903 31.4606 9.17389 31.5498Z" fill="black"/>
<path d="M10.2543 32.691C10.1446 32.8149 9.91108 32.7814 9.74039 32.6123C9.5654 32.4471 9.51688 32.2124 9.6265 32.0884C9.73783 31.9643 9.97263 31.9991 10.1446 32.1669C10.3183 32.332 10.371 32.5682 10.2543 32.691Z" fill="black"/>
<path d="M11.7445 33.3535C11.696 33.5139 11.4713 33.5869 11.2448 33.5186C11.0184 33.4483 10.8707 33.2603 10.9162 33.0981C10.9631 32.9363 11.1891 32.8604 11.4171 32.9333C11.6432 33.0033 11.7913 33.19 11.7445 33.3535Z" fill="black"/>
<path d="M13.3814 33.4762C13.3869 33.6453 13.1948 33.7856 12.9571 33.7886C12.718 33.7942 12.5242 33.6573 12.5217 33.4908C12.5217 33.32 12.7095 33.1813 12.9487 33.1771C13.1863 33.1724 13.3814 33.3083 13.3814 33.4762Z" fill="black"/>
<path d="M14.9044 33.2105C14.9328 33.3754 14.7674 33.5448 14.5313 33.5899C14.2991 33.6337 14.0844 33.5316 14.0547 33.368C14.026 33.1989 14.194 33.0295 14.426 32.9857C14.6625 32.9436 14.8743 33.0427 14.9044 33.2105Z" fill="black"/>
</svg>
