<svg width="100" height="100" viewBox="0 0 100 100" fill="none" xmlns="http://www.w3.org/2000/svg">
<g clip-path="url(#clip0_1_447)">
<path fill-rule="evenodd" clip-rule="evenodd" d="M37.4647 53.9062H49.4733C47.4061 46.875 45.3702 40.375 43.3671 33.7687C41.4233 40.3984 39.4515 46.875 37.4647 53.9062ZM96.9624 0.78125H2.24442C0.53661 0.78125 0.781142 1.15312 0.781142 2.80078V97.6398C0.781142 99.2859 0.53661 99.2187 2.12411 99.2187H97.0827C98.6694 99.2187 99.2187 99.2859 99.2187 97.639V2.92109C99.2187 1.15312 98.6702 0.78125 96.9624 0.78125ZM60.389 75C59.1101 75 57.8265 74.8961 56.5538 74.9875C55.6358 75.0562 55.3288 74.6703 55.0843 73.8734C53.9015 70.0211 52.6444 66.1703 51.4608 62.3187C51.2226 61.5437 50.8819 61.2609 50.0421 61.2711C45.7272 61.3211 41.41 61.3164 37.0944 61.2656C36.1858 61.2547 35.7679 61.4969 35.5085 62.3984C34.41 66.2297 33.2085 70.0297 32.0983 73.857C31.8577 74.6867 31.4921 74.9765 30.6108 74.9539C28.0186 74.889 25.4226 74.9289 22.5843 74.9289C23.3335 72.55 24.0132 70.35 24.7163 68.1594C29.0241 54.7219 33.3468 41.2844 37.6233 27.8383C37.9218 26.9023 38.3366 26.6141 39.2976 26.6351C42.3335 26.7023 45.3718 26.6523 48.4093 26.6351C48.9772 26.6312 49.3647 26.6648 49.5726 27.3102C54.6546 43.0258 59.7546 58.8383 64.8499 74.5523C64.8718 74.6234 64.8577 75 64.8694 75H60.389ZM76.5624 75H67.1874V39.8437H76.5624V75ZM71.6015 35.1008C68.7382 35.0969 66.6882 33.1258 66.6686 30.3586C66.6499 27.5992 68.7835 25.5469 71.6733 25.5437C74.5858 25.5406 76.6382 27.5258 76.6608 30.3648C76.6812 33.1344 74.5772 35.1055 71.6015 35.1008Z" fill="#FAA625"/>
</g>
<defs>
<clipPath id="clip0_1_447">
<rect width="100" height="100" fill="white"/>
</clipPath>
</defs>
</svg>
