<svg width="40" height="40" viewBox="0 0 40 40" fill="none" xmlns="http://www.w3.org/2000/svg">
<path d="M20.0001 9.5968C14.3549 9.5968 9.67749 14.1936 9.67749 19.9194C9.67749 25.6452 14.2743 30.242 20.0001 30.242C25.7259 30.242 30.3227 25.5645 30.3227 19.9194C30.3227 14.2742 25.6452 9.5968 20.0001 9.5968ZM20.0001 26.5323C16.371 26.5323 13.3872 23.5484 13.3872 19.9194C13.3872 16.2903 16.371 13.3065 20.0001 13.3065C23.6291 13.3065 26.613 16.2903 26.613 19.9194C26.613 23.5484 23.6291 26.5323 20.0001 26.5323Z" fill="black"/>
<path d="M30.7257 11.6935C32.0173 11.6935 33.0644 10.6465 33.0644 9.35482C33.0644 8.06319 32.0173 7.01611 30.7257 7.01611C29.434 7.01611 28.387 8.06319 28.387 9.35482C28.387 10.6465 29.434 11.6935 30.7257 11.6935Z" fill="black"/>
<path d="M36.7742 3.30645C34.6774 1.12903 31.6935 0 28.3064 0H11.6935C4.67742 0 0 4.67742 0 11.6935V28.2258C0 31.6935 1.12903 34.6774 3.3871 36.8548C5.56452 38.9516 8.46774 40 11.7742 40H28.2258C31.6935 40 34.5968 38.871 36.6936 36.8548C38.871 34.7581 40 31.7742 40 28.3065V11.6935C40 8.30645 38.871 5.40322 36.7742 3.30645ZM36.4516 28.3065C36.4516 30.8065 35.5645 32.8226 34.1129 34.1935C32.6613 35.5645 30.6452 36.2903 28.2258 36.2903H11.7742C9.35484 36.2903 7.33871 35.5645 5.8871 34.1935C4.43548 32.7419 3.70968 30.7258 3.70968 28.2258V11.6935C3.70968 9.27419 4.43548 7.25806 5.8871 5.80645C7.25806 4.43548 9.35484 3.70968 11.7742 3.70968H28.3871C30.8064 3.70968 32.8226 4.43548 34.2742 5.8871C35.6452 7.33871 36.4516 9.35484 36.4516 11.6935V28.3065Z" fill="black"/>
</svg>
