<svg width="100" height="100" viewBox="0 0 100 100" fill="none" xmlns="http://www.w3.org/2000/svg">
<g clip-path="url(#clip0_1_382)">
<path d="M21.3055 0.0859443C21.1493 0.146882 16.7587 2.64844 11.5501 5.64219C5.23912 9.27032 1.99771 11.1813 1.82428 11.3609C1.67584 11.5367 1.55865 11.7375 1.48209 11.9547C1.35162 12.3953 1.34224 76.7867 1.47428 77.25C1.52193 77.4297 1.6774 77.6938 1.81803 77.8391C2.15865 78.1984 39.8368 99.8625 40.2946 99.9672C40.5071 100.018 40.7454 100.009 40.9821 99.9438C41.4962 99.8149 79.0758 78.1984 79.4102 77.8453C79.5469 77.693 79.7032 77.4297 79.754 77.2508C79.8196 77.0375 79.8438 73.6727 79.8438 66.5828V56.2234L89.0048 50.9617C97.6423 45.9953 98.1712 45.6844 98.393 45.3438L98.6196 44.9766V33.818C98.6196 21.6711 98.643 22.3547 98.1626 21.9156C98.0337 21.8016 93.6329 19.2336 88.3735 16.2047L78.8204 10.7109H77.7587L68.4126 16.0781C63.2673 19.0375 58.8938 21.568 58.6805 21.7055C58.468 21.8461 58.2141 22.1055 58.1102 22.2938L57.9212 22.6195L57.879 33.1313L57.8415 43.6469L50.1235 48.0922C45.8782 50.5328 42.3446 52.5531 42.2696 52.5719C42.1329 52.6102 42.1235 51.6094 42.1235 32.2859V11.9477L41.9204 11.5984C41.6657 11.1727 42.8079 11.8516 31.3391 5.25938C21.7212 -0.271868 21.9524 -0.156243 21.3055 0.0859443ZM30.1469 8.13829C34.1704 10.4469 37.4626 12.357 37.4626 12.3805C37.4626 12.4047 33.9344 14.4438 29.6227 16.9219L21.7782 21.4258L13.9477 16.9227C9.64537 14.4438 6.11959 12.4047 6.11959 12.3805C6.11959 12.357 9.63912 10.318 13.9422 7.84532L21.754 3.35157L22.293 3.64532C24.9157 5.13516 27.5337 6.63282 30.1469 8.13829ZM86.1376 18.4984C90.3735 20.9375 93.8782 22.9531 93.911 22.9859C94.0001 23.0664 78.4626 31.9977 78.2501 31.9883C78.0376 31.982 62.6915 23.1328 62.6977 23.025C62.7055 22.9024 78.1454 14.0195 78.3016 14.0438C78.3727 14.0609 81.9008 16.0672 86.1376 18.4984ZM12.7344 19.7875L20.2016 24.0867L20.2446 45.3734L20.2837 66.6641L20.4657 66.9516C20.561 67.1031 20.7407 67.3102 20.8719 67.4055C20.9954 67.4953 25.1508 69.8633 30.1047 72.6586L39.1047 77.7414V86.7469C39.1047 91.6891 39.0712 95.7438 39.029 95.7438C38.9969 95.7438 31.2165 91.2914 21.7446 85.8406L4.52584 75.9383L4.5024 45.4961L4.48756 15.0633L4.87037 15.275C5.09146 15.3922 8.62584 17.4219 12.7337 19.7867L12.7344 19.7875ZM39.1047 34.7719V54.3883L38.8024 54.5859C38.3922 54.8453 23.4376 63.4414 23.3868 63.4414C23.3633 63.4414 23.3446 54.5852 23.3446 43.7594L23.354 24.0859L31.1665 19.5922C35.4626 17.1195 39.0055 15.1133 39.0477 15.1281C39.0782 15.1469 39.1047 23.9875 39.1047 34.7719ZM68.9094 30.2602L76.7399 34.7625V43.6875C76.7399 52.1547 76.7313 52.6094 76.6024 52.5602C76.5188 52.5281 72.9758 50.4977 68.7251 48.0492L60.9829 43.6039V34.682C60.9829 29.7703 61.0079 25.757 61.0313 25.757C61.0649 25.757 64.6071 27.782 68.9094 30.2602ZM95.6001 34.625C95.6001 39.5109 95.5673 43.5406 95.5344 43.5797C95.4782 43.6695 79.9907 52.5938 79.8923 52.5938C79.868 52.5938 79.8438 48.582 79.8438 43.6695V34.7477L87.6563 30.2508C91.9587 27.782 95.5016 25.757 95.5344 25.757C95.5758 25.757 95.6001 29.7453 95.6001 34.625ZM74.9946 55.4164L40.629 75.0313L25.0438 66.1664C25.0438 66.1664 59.3751 46.3102 59.5126 46.3617L74.9946 55.4164ZM76.7251 67L76.6985 75.9391L59.4891 85.8422C50.0204 91.2922 42.2376 95.7445 42.1985 95.7445C42.1571 95.7445 42.1243 92.1055 42.1243 86.7477V77.7422L59.3743 67.9047C68.8524 62.4961 76.6407 58.0688 76.6821 58.0594C76.7157 58.0594 76.7305 62.0813 76.7243 66.9992L76.7251 67Z" fill="#F0513F"/>
</g>
<defs>
<clipPath id="clip0_1_382">
<rect width="100" height="100" fill="white"/>
</clipPath>
</defs>
</svg>
