<svg width="100" height="100" viewBox="0 0 100 100" fill="none" xmlns="http://www.w3.org/2000/svg">
<path fill-rule="evenodd" clip-rule="evenodd" d="M84.8171 65.2711C83.3039 67.557 82.1562 70.3703 79.0828 70.3703C73.9078 70.3703 73.6296 62.3992 68.4507 62.3992C63.2749 62.3992 63.5562 70.3703 58.3828 70.3703C53.207 70.3703 52.9296 62.3992 47.7507 62.3992C42.575 62.3992 42.8554 70.3703 37.6828 70.3703C32.507 70.3703 32.2296 62.3992 27.0539 62.3992C21.875 62.3992 22.1554 70.3703 16.9835 70.3703C15.3562 70.3703 14.2148 69.5828 13.2507 68.5031C9.54917 62.0664 7.4187 54.5227 7.4187 46.4562C7.4187 22.8453 25.6742 3.70468 48.1929 3.70468C70.7125 3.70468 88.9679 22.8453 88.9679 46.457C88.9679 53.207 87.4757 59.5945 84.8171 65.2711Z" fill="#FB70A9"/>
<path fill-rule="evenodd" clip-rule="evenodd" d="M31.9094 61.0508V78.7602C31.9094 81.9367 29.3305 84.5125 26.1508 84.5125C25.3949 84.5131 24.6462 84.3648 23.9476 84.0759C23.249 83.7871 22.6142 83.3634 22.0794 82.8291C21.5446 82.2949 21.1204 81.6605 20.8309 80.9621C20.5414 80.2638 20.3923 79.5153 20.3922 78.7594V57.3828C21.4664 55.4117 22.693 53.7055 24.9078 53.7055C28.5094 53.7055 29.7696 58.2289 31.9094 61.0516V61.0508ZM53.6617 61.975V89.9781C53.6615 90.8179 53.4959 91.6493 53.1744 92.4251C52.8528 93.2008 52.3817 93.9056 51.7877 94.4993C51.1938 95.0929 50.4888 95.5638 49.7129 95.8849C48.937 96.2061 48.1054 96.3713 47.2657 96.3711C43.7321 96.3711 40.8664 93.5086 40.8664 89.9781V58.2828C42.0719 55.9602 43.3133 53.7047 45.8586 53.7047C49.8899 53.7047 50.986 59.3625 53.6625 61.975H53.6617ZM74.1391 61.4594V81.7898C74.1391 84.9672 71.561 87.543 68.3813 87.543C65.2008 87.543 62.6219 84.9672 62.6219 81.7898V56.8023C63.6227 55.0875 64.8164 53.7047 66.8125 53.7047C70.5938 53.7047 71.793 58.6891 74.1391 61.4594Z" fill="#4E56A6"/>
<path fill-rule="evenodd" clip-rule="evenodd" d="M31.9094 66.4797C30.8867 65.2281 29.6782 64.3 27.9297 64.3C23.7766 64.3 23.0133 69.5313 20.3922 71.8875V49.332C20.3923 48.5762 20.5413 47.8277 20.8308 47.1295C21.1203 46.4312 21.5444 45.7968 22.0791 45.2625C22.6139 44.7283 23.2486 44.3046 23.9471 44.0157C24.6456 43.7268 25.3941 43.5784 26.15 43.5789C29.3305 43.5789 31.9094 46.1547 31.9094 49.332V66.4797ZM53.6617 66.882C52.5727 65.4328 51.3 64.3008 49.368 64.3008C44.7477 64.3008 44.3235 70.7735 40.8664 72.5649V62.5883C40.8664 59.057 43.7321 56.1953 47.2657 56.1953C48.1055 56.195 48.9371 56.3601 49.7131 56.6813C50.4891 57.0024 51.1942 57.4732 51.7882 58.0669C52.3822 58.6605 52.8535 59.3654 53.1751 60.1412C53.4967 60.917 53.6623 61.7485 53.6625 62.5883L53.6617 66.882ZM74.1391 65.7625C73.2516 64.8899 72.2016 64.3008 70.8071 64.3008C66.3305 64.3008 65.793 70.3766 62.6219 72.3813V52.136C62.6219 50.6087 63.2286 49.144 64.3086 48.064C65.3885 46.9841 66.8532 46.3774 68.3805 46.3774C69.9078 46.3774 71.3725 46.9841 72.4524 48.064C73.5324 49.144 74.1391 50.6087 74.1391 52.136V65.7625Z" fill="black" fill-opacity="0.298039"/>
<path fill-rule="evenodd" clip-rule="evenodd" d="M84.8171 65.2711C83.3039 67.557 82.1562 70.3703 79.0828 70.3703C73.9078 70.3703 73.6296 62.3992 68.4507 62.3992C63.2749 62.3992 63.5562 70.3703 58.3828 70.3703C53.207 70.3703 52.9296 62.3992 47.7507 62.3992C42.575 62.3992 42.8554 70.3703 37.6828 70.3703C32.507 70.3703 32.2296 62.3992 27.0539 62.3992C21.875 62.3992 22.1554 70.3703 16.9835 70.3703C15.3562 70.3703 14.2148 69.5828 13.2507 68.5031C9.54917 62.0664 7.4187 54.5227 7.4187 46.4562C7.4187 22.8453 25.6742 3.70468 48.1929 3.70468C70.7125 3.70468 88.9679 22.8453 88.9679 46.457C88.9679 53.207 87.4757 59.5945 84.8171 65.2711Z" fill="#FB70A9"/>
<path fill-rule="evenodd" clip-rule="evenodd" d="M75.9945 69.5187C86.6789 53.6344 86.9539 36.0195 76.8218 16.6656C84.332 24.3562 88.9679 34.9062 88.9679 46.5484C88.9679 53.275 87.4211 59.6344 84.6648 65.2922C83.0992 67.5656 81.9062 70.3703 78.7195 70.3703C77.7443 70.3795 76.791 70.0816 75.9945 69.5187Z" fill="#E24CA6"/>
<path fill-rule="evenodd" clip-rule="evenodd" d="M46.0078 57.1227C60.1875 57.1227 66.1562 48.9039 66.1562 37.232C66.1562 25.5586 57.1351 14.8164 46.0078 14.8164C34.8789 14.8164 25.8578 25.5586 25.8578 37.2312C25.8578 48.9047 31.8258 57.1227 46.0078 57.1227Z" fill="white"/>
<path fill-rule="evenodd" clip-rule="evenodd" d="M48.1445 29.5594C48.1445 34.1609 44.7601 37.8938 40.5882 37.8938C36.4132 37.8938 33.032 34.1617 33.032 29.5594C33.032 24.9578 36.4132 21.225 40.5882 21.225C44.7601 21.225 48.1445 24.957 48.1445 29.5594Z" fill="#030776"/>
<path fill-rule="evenodd" clip-rule="evenodd" d="M43.1063 27.6367C43.1063 29.7609 41.4157 31.482 39.3282 31.482C37.2407 31.482 35.55 29.7609 35.55 27.6367C35.55 25.5125 37.2407 23.7914 39.3282 23.7914C41.4157 23.7914 43.1063 25.5125 43.1063 27.6367Z" fill="white"/>
</svg>
