<svg width="100" height="100" viewBox="0 0 100 100" fill="none" xmlns="http://www.w3.org/2000/svg">
<path d="M9.33584 19.0219C4.77647 19.0219 1.04053 22.8242 1.04053 27.3664V72.6336C1.04053 77.1758 4.77647 80.9781 9.33506 80.9781H90.6648C95.2234 80.9781 98.9593 77.1758 98.9593 72.6336V27.3672C98.9593 22.825 95.2226 19.0227 90.6648 19.0227H11.639L11.6374 19.0211L9.33584 19.0219ZM9.33037 26.4773H90.6648C91.153 26.4773 91.5054 26.8078 91.5054 27.368V72.6336C91.5054 73.1938 91.1515 73.5242 90.6648 73.5242H9.33506C8.84834 73.5242 8.49443 73.1938 8.49443 72.6336V27.3664C8.49443 26.8078 8.84678 26.4797 9.33037 26.4773Z" fill="black"/>
<path d="M16.1882 65.7031V34.2969H25.3281L34.4664 45.8438L43.6015 34.2969H52.739V65.7031H43.6015V47.6906L34.4656 59.2375L25.3265 47.6906V65.7031H16.1882ZM73.3007 65.7031L59.5937 50.4617H68.732V34.2969H77.871V50.4609H87.0101L73.3007 65.7031Z" fill="black"/>
</svg>
