<svg width="100" height="100" viewBox="0 0 100 100" fill="none" xmlns="http://www.w3.org/2000/svg">
<g clip-path="url(#clip0_1_439)">
<path d="M21.293 63.0617C21.293 68.7883 16.6227 73.4657 10.8953 73.4657C5.16875 73.4657 0.492188 68.7883 0.492188 63.0617C0.492188 57.3352 5.16953 52.6578 10.8961 52.6578H21.2938L21.293 63.0617ZM26.5344 63.0617C26.5344 57.3352 31.2117 52.6578 36.9383 52.6578C42.6648 52.6578 47.3422 57.3344 47.3422 63.0617V89.1047C47.3422 94.8313 42.6656 99.5086 36.9383 99.5086C31.2117 99.5086 26.5344 94.8313 26.5344 89.1047V63.0617Z" fill="#DE1C59"/>
<path d="M36.9385 21.2932C31.212 21.2932 26.5346 16.6228 26.5346 10.8955C26.5346 5.16893 31.212 0.492371 36.9385 0.492371C42.6651 0.492371 47.3424 5.16971 47.3424 10.8963V21.2939L36.9385 21.2932ZM36.9385 26.5346C42.6651 26.5346 47.3424 31.2119 47.3424 36.9385C47.3424 42.665 42.6659 47.3424 36.9385 47.3424H10.8956C5.16899 47.3424 0.492432 42.6658 0.492432 36.9385C0.492432 31.2119 5.16978 26.5346 10.8963 26.5346H36.9385Z" fill="#35C5F0"/>
<path d="M78.7069 36.9383C78.7069 31.2117 83.3772 26.5344 89.1046 26.5344C94.8312 26.5344 99.5085 31.2117 99.5085 36.9383C99.5085 42.6648 94.8312 47.3422 89.1046 47.3422H78.7069V36.9383ZM73.4655 36.9383C73.4655 42.6648 68.7882 47.3422 63.0616 47.3422C57.3351 47.3422 52.6577 42.6656 52.6577 36.9383V10.8953C52.6577 5.16875 57.3343 0.492188 63.0616 0.492188C68.7882 0.492188 73.4655 5.16953 73.4655 10.8961V36.9383Z" fill="#2EB57D"/>
<path d="M63.0616 78.7071C68.7882 78.7071 73.4655 83.3774 73.4655 89.1047C73.4655 94.8313 68.7882 99.5086 63.0616 99.5086C57.3351 99.5086 52.6577 94.8313 52.6577 89.1047V78.7071H63.0616ZM63.0616 73.4657C57.3351 73.4657 52.6577 68.7883 52.6577 63.0617C52.6577 57.3352 57.3343 52.6578 63.0616 52.6578H89.1046C94.8312 52.6578 99.5085 57.3344 99.5085 63.0617C99.5085 68.7883 94.8312 73.4657 89.1046 73.4657H63.0616Z" fill="#EBB02E"/>
</g>
<defs>
<clipPath id="clip0_1_439">
<rect width="100" height="100" fill="white"/>
</clipPath>
</defs>
</svg>
